<svg width="27" height="7" viewBox="0 0 27 7" fill="none" xmlns="http://www.w3.org/2000/svg">
<path d="M10.0459 0.0527403C9.13885 0.237311 8.28983 0.875396 7.8785 1.69278C7.61483 2.22012 7.541 2.59981 7.541 3.43829V4.16075L4.55096 4.17657C1.72967 4.19239 1.5451 4.19766 1.35526 4.29258C0.827914 4.55098 0.685532 5.28926 1.07049 5.73223C1.3869 6.09083 0.390218 6.06446 13.5105 6.06446C24.7693 6.06446 25.4549 6.05918 25.6236 5.96954C26.2933 5.63204 26.3303 4.71446 25.6922 4.33477L25.4443 4.19239L22.4596 4.17657L19.4695 4.16075L19.4484 3.30645C19.4273 2.5629 19.4062 2.40469 19.2902 2.10411C19.0951 1.58204 18.9 1.27618 18.515 0.89649C18.1037 0.490436 17.6713 0.247857 17.107 0.105475C16.7221 0.00527933 16.5269 5.88822e-06 13.4789 0.00527933C11.707 0.0105528 10.1619 0.0316465 10.0459 0.0527403ZM16.8486 1.99864C16.9646 2.05137 17.1334 2.17794 17.2283 2.27286C17.5078 2.56817 17.5605 2.76329 17.5605 3.50684V4.16602H13.5H9.43944V3.49102C9.43944 2.95313 9.46053 2.77911 9.53963 2.61036C9.66092 2.34141 9.88241 2.11993 10.1514 1.99864C10.3465 1.90899 10.568 1.89844 13.5 1.89844C16.4478 1.89844 16.6482 1.90899 16.8486 1.99864Z" fill="#F9FDFF"/>
</svg>
