<svg width="27" height="27" viewBox="0 0 27 27" fill="none" xmlns="http://www.w3.org/2000/svg">
<g clip-path="url(#clip0_103_2)">
<path d="M10.0459 0.0527403C9.13885 0.237311 8.28983 0.875396 7.8785 1.69278C7.61483 2.22012 7.541 2.59981 7.541 3.43829V4.16075L4.55096 4.17657C1.72967 4.19239 1.5451 4.19766 1.35526 4.29258C0.827914 4.55098 0.685532 5.28926 1.07049 5.73223C1.3869 6.09083 0.390218 6.06446 13.5105 6.06446C24.7693 6.06446 25.4549 6.05918 25.6236 5.96954C26.2933 5.63204 26.3303 4.71446 25.6922 4.33477L25.4443 4.19239L22.4596 4.17657L19.4695 4.16075L19.4484 3.30645C19.4273 2.5629 19.4062 2.40469 19.2902 2.10411C19.0951 1.58204 18.9 1.27618 18.515 0.89649C18.1037 0.490436 17.6713 0.247857 17.107 0.105475C16.7221 0.00527933 16.5269 5.88822e-06 13.4789 0.00527933C11.707 0.0105528 10.1619 0.0316465 10.0459 0.0527403ZM16.8486 1.99864C16.9646 2.05137 17.1334 2.17794 17.2283 2.27286C17.5078 2.56817 17.5605 2.76329 17.5605 3.50684V4.16602H13.5H9.43944V3.49102C9.43944 2.95313 9.46053 2.77911 9.53963 2.61036C9.66092 2.34141 9.88241 2.11993 10.1514 1.99864C10.3465 1.90899 10.568 1.89844 13.5 1.89844C16.4478 1.89844 16.6482 1.90899 16.8486 1.99864Z" fill="#F9FDFF"/>
<path d="M3.87598 7.36172C3.66504 7.47246 3.53848 7.58848 3.43301 7.77832C3.35391 7.92598 3.34863 8.62735 3.34863 16.2422C3.34863 24.1576 3.35391 24.5637 3.44355 24.8643C3.68613 25.6447 4.20293 26.2881 4.8832 26.6414C5.60039 27.0211 5.10469 27 13.4525 27C18.5572 27 21.0674 26.9842 21.2836 26.942C21.4523 26.9104 21.7846 26.7943 22.0166 26.6836C22.7232 26.3408 23.2559 25.7291 23.4932 24.9803L23.625 24.5689V16.258V7.94707L23.4984 7.73086C23.1609 7.15606 22.275 7.12969 21.927 7.68867L21.8057 7.88379L21.7793 16.1104L21.7529 24.3369L21.6422 24.5479C21.4998 24.8063 21.3838 24.917 21.1307 25.0225C20.9619 25.091 20.0707 25.1016 13.4736 25.1016C5.33672 25.1016 5.87988 25.1227 5.54766 24.8168C5.22598 24.5268 5.24707 25.1807 5.2207 16.1314L5.19434 7.87852L5.0625 7.6834C4.80938 7.30899 4.26094 7.16133 3.87598 7.36172Z" fill="#F9FDFF"/>
<path d="M9.00176 9.09668C8.75391 9.18106 8.57461 9.33926 8.46914 9.57129C8.39531 9.72422 8.38477 10.4414 8.38477 15.9205C8.38477 21.9744 8.38477 22.1063 8.49023 22.3066C8.82773 22.9658 9.79805 22.95 10.1672 22.2803C10.2516 22.1379 10.2568 21.5947 10.2568 15.9258C10.2568 10.1725 10.2516 9.71895 10.1672 9.56602C10.0459 9.33926 9.79277 9.13887 9.55547 9.07032C9.30762 9.00176 9.24961 9.00703 9.00176 9.09668Z" fill="#F9FDFF"/>
<path d="M13.2785 9.07032C13.0359 9.14414 12.8461 9.28125 12.709 9.48164L12.5771 9.67676L12.5613 15.7939C12.5508 20.0443 12.5613 21.9691 12.6035 22.1063C12.672 22.3383 12.8777 22.5967 13.0834 22.7022C13.2732 22.8023 13.7267 22.8023 13.9113 22.7074C14.1275 22.5967 14.3384 22.3488 14.3965 22.1432C14.4281 22.0324 14.4492 19.6963 14.4492 15.8783C14.4492 9.89824 14.4492 9.7875 14.3437 9.57129C14.2224 9.31817 14.022 9.15469 13.732 9.07559C13.5 9.01231 13.4736 9.01231 13.2785 9.07032Z" fill="#F9FDFF"/>
<path d="M17.3865 9.09141C17.1492 9.18106 16.9541 9.34981 16.8328 9.57129C16.7484 9.71367 16.7432 10.2568 16.7432 15.873C16.7432 19.2533 16.759 22.0799 16.7801 22.159C16.8328 22.3436 17.0596 22.6072 17.2547 22.7074C17.6766 22.9236 18.2988 22.718 18.5045 22.2908C18.6152 22.0641 18.6152 22.0482 18.6152 15.9205C18.6152 10.0037 18.61 9.77168 18.515 9.56074C18.3252 9.15469 17.8084 8.93848 17.3865 9.09141Z" fill="#F9FDFF"/>
</g>
<defs>
<clipPath id="clip0_103_2">
<rect width="27" height="27" fill="white"/>
</clipPath>
</defs>
</svg>
