<svg width="21" height="20" viewBox="0 0 21 20" fill="none" xmlns="http://www.w3.org/2000/svg">
<path d="M0.875977 0.361721C0.665039 0.472463 0.538477 0.588479 0.433008 0.778322C0.353906 0.925979 0.348633 1.62735 0.348633 9.24219C0.348633 17.1576 0.353906 17.5637 0.443555 17.8643C0.686133 18.6447 1.20293 19.2881 1.8832 19.6414C2.60039 20.0211 2.10469 20 10.4525 20C15.5572 20 18.0674 19.9842 18.2836 19.942C18.4523 19.9104 18.7846 19.7943 19.0166 19.6836C19.7232 19.3408 20.2559 18.7291 20.4932 17.9803L20.625 17.5689V9.25801V0.947072L20.4984 0.730862C20.1609 0.156057 19.275 0.12969 18.927 0.688674L18.8057 0.883791L18.7793 9.11035L18.7529 17.3369L18.6422 17.5479C18.4998 17.8063 18.3838 17.917 18.1307 18.0225C17.9619 18.091 17.0707 18.1016 10.4736 18.1016C2.33672 18.1016 2.87988 18.1227 2.54766 17.8168C2.22598 17.5268 2.24707 18.1807 2.2207 9.13145L2.19434 0.878518L2.0625 0.683401C1.80938 0.308987 1.26094 0.16133 0.875977 0.361721Z" fill="#F9FDFF"/>
<path d="M6.00176 2.09668C5.75391 2.18106 5.57461 2.33926 5.46914 2.57129C5.39531 2.72422 5.38477 3.44141 5.38477 8.92051C5.38477 14.9744 5.38477 15.1063 5.49023 15.3066C5.82773 15.9658 6.79805 15.95 7.16719 15.2803C7.25156 15.1379 7.25684 14.5947 7.25684 8.92579C7.25684 3.17246 7.25156 2.71895 7.16719 2.56602C7.0459 2.33926 6.79277 2.13887 6.55547 2.07032C6.30762 2.00176 6.24961 2.00703 6.00176 2.09668Z" fill="#F9FDFF"/>
<path d="M10.2785 2.07032C10.0359 2.14414 9.8461 2.28125 9.70899 2.48164L9.57715 2.67676L9.56133 8.79395C9.55078 13.0443 9.56133 14.9691 9.60352 15.1063C9.67207 15.3383 9.87774 15.5967 10.0834 15.7022C10.2732 15.8023 10.7268 15.8023 10.9113 15.7074C11.1275 15.5967 11.3385 15.3488 11.3965 15.1432C11.4281 15.0324 11.4492 12.6963 11.4492 8.87832C11.4492 2.89824 11.4492 2.7875 11.3438 2.57129C11.2225 2.31817 11.0221 2.15469 10.732 2.07559C10.5 2.01231 10.4736 2.01231 10.2785 2.07032Z" fill="#F9FDFF"/>
<path d="M14.3865 2.09141C14.1492 2.18106 13.9541 2.34981 13.8328 2.57129C13.7484 2.71367 13.7432 3.25684 13.7432 8.87305C13.7432 12.2533 13.759 15.0799 13.7801 15.159C13.8328 15.3436 14.0596 15.6072 14.2547 15.7074C14.6766 15.9236 15.2988 15.718 15.5045 15.2908C15.6152 15.0641 15.6152 15.0482 15.6152 8.92051C15.6152 3.00371 15.61 2.77168 15.515 2.56074C15.3252 2.15469 14.8084 1.93848 14.3865 2.09141Z" fill="#F9FDFF"/>
</svg>
